<?xml version="1.0" standalone="no"?>
<!DOCTYPE svg PUBLIC "-//W3C//DTD SVG 20010904//EN"
 "http://www.w3.org/TR/2001/REC-SVG-20010904/DTD/svg10.dtd">
<svg version="1.0" xmlns="http://www.w3.org/2000/svg"
 width="984.000000pt" height="984.000000pt" viewBox="0 0 984.000000 984.000000"
 preserveAspectRatio="xMidYMid meet">
<metadata>
Created by potrace 1.11, written by Peter Selinger 2001-2013
</metadata>
<g transform="translate(0.000000,984.000000) scale(0.100000,-0.100000)"
fill="#000000" stroke="none">
<path d="M8344 9044 c-27 -13 -75 -74 -58 -74 3 0 2 -6 -3 -12 -6 -7 -25 -56
-43 -108 -18 -52 -41 -120 -52 -150 -11 -30 -21 -59 -22 -65 -1 -5 -12 -37
-25 -70 -39 -103 -15 -182 62 -200 43 -10 48 -10 77 3 57 26 65 41 166 342 8
25 18 52 21 60 3 8 7 20 9 25 1 6 10 30 19 55 25 71 28 106 10 144 -28 58 -99
81 -161 50z"/>
<path d="M7168 8825 c-3 -4 -14 -8 -23 -9 -25 -4 -75 -55 -76 -79 -4 -57 4
-82 71 -222 85 -177 111 -207 178 -203 71 3 122 58 115 125 -1 17 -30 88 -63
156 -33 68 -60 130 -60 136 0 6 -4 11 -10 11 -5 0 -10 6 -10 13 0 18 -42 57
-66 61 -10 3 -26 7 -35 10 -8 4 -18 4 -21 1z"/>
<path d="M7690 8249 c-81 -17 -165 -41 -177 -51 -7 -6 -13 -8 -13 -5 0 5 -89
-38 -146 -71 -92 -53 -214 -173 -280 -274 -93 -142 -144 -297 -150 -456 -2
-51 -6 -97 -9 -102 -4 -6 -2 -10 2 -10 5 0 9 -10 9 -22 2 -126 68 -307 164
-448 40 -60 153 -180 169 -180 5 0 15 -7 22 -16 14 -17 80 -62 89 -60 3 0 19
-8 35 -20 29 -20 121 -62 154 -70 9 -2 36 -8 61 -15 25 -6 54 -13 65 -15 41
-10 236 -11 282 -2 26 5 60 11 74 13 38 5 148 43 199 69 133 65 268 178 338
281 15 22 30 42 33 45 8 6 60 107 83 160 18 41 46 141 52 178 5 41 17 166 16
177 -6 104 -19 178 -49 270 -23 70 -95 221 -112 235 -3 3 -19 23 -36 45 -48
65 -198 205 -219 205 -3 0 -26 13 -52 30 -63 40 -160 76 -289 107 -39 9 -271
11 -315 2z m315 -249 c262 -68 461 -284 503 -545 13 -86 7 -248 -11 -272 -5
-7 -7 -13 -3 -13 3 0 -4 -26 -16 -57 -55 -148 -133 -247 -268 -340 -49 -33
-150 -79 -196 -88 -172 -35 -281 -28 -424 27 -304 116 -483 451 -414 775 11
55 59 179 74 193 3 3 12 18 20 35 20 39 166 185 185 185 8 0 15 4 15 8 0 13
135 73 208 92 79 21 248 21 327 0z"/>
<path d="M9168 8109 c-10 -5 -18 -8 -18 -6 0 2 -68 -30 -152 -72 -94 -47 -159
-86 -171 -102 -23 -32 -25 -91 -3 -124 41 -62 105 -73 188 -33 29 14 101 49
159 77 59 29 115 61 125 72 20 22 31 129 13 129 -5 0 -9 6 -9 13 -1 32 -98 66
-132 46z"/>
<path d="M6178 8002 c-30 -18 -58 -67 -58 -102 0 -38 30 -88 63 -103 18 -9 77
-31 132 -50 55 -19 136 -47 180 -62 44 -15 91 -32 105 -38 76 -31 130 -32 170
-5 93 63 63 180 -56 221 -27 9 -121 41 -209 72 -241 84 -244 85 -273 85 -15 0
-39 -8 -54 -18z"/>
<path d="M8933 7055 c-46 -19 -73 -61 -73 -111 0 -69 40 -104 170 -147 58 -19
166 -57 240 -83 153 -54 193 -59 233 -32 87 61 68 179 -36 218 -17 7 -41 16
-52 20 -11 5 -29 10 -40 13 -11 3 -78 26 -150 52 -71 26 -134 48 -140 49 -5 2
-17 6 -25 9 -44 19 -99 24 -127 12z"/>
<path d="M6720 6932 c-8 -2 -67 -29 -130 -60 -63 -30 -129 -61 -147 -68 -64
-28 -100 -105 -75 -165 14 -36 68 -72 106 -72 30 0 54 10 258 107 130 62 163
112 129 194 -21 50 -90 82 -141 64z"/>
<path d="M8310 6360 c-75 -39 -82 -97 -28 -212 22 -45 55 -116 74 -155 48
-101 72 -124 131 -128 56 -4 98 21 118 68 18 44 10 76 -53 206 -31 64 -56 118
-57 121 0 3 -11 24 -24 47 -36 62 -101 84 -161 53z"/>
<path d="M7413 6322 c-43 -7 -77 -55 -117 -168 -21 -60 -39 -113 -40 -119 -1
-5 -4 -14 -7 -20 -11 -18 -63 -180 -61 -187 1 -5 -2 -8 -8 -8 -6 0 -9 -3 -8
-7 1 -5 -2 -24 -6 -44 -15 -73 36 -139 114 -145 31 -2 45 3 74 29 29 27 42 55
81 167 25 74 49 144 54 155 14 30 62 175 71 212 5 19 3 36 -3 42 -6 6 -8 11
-3 11 4 0 -2 14 -14 31 -29 40 -78 60 -127 51z"/>
<path d="M338 4417 c-26 -18 -61 -79 -186 -327 -134 -268 -152 -310 -148 -343
2 -21 11 -48 20 -61 10 -16 282 -158 853 -444 l838 -420 0 -903 0 -904 -305
-5 c-334 -5 -335 -6 -364 -67 -21 -45 -20 -68 5 -113 15 -26 32 -41 58 -49 26
-9 226 -11 746 -9 391 2 716 5 724 8 18 7 56 42 59 55 14 71 14 80 -2 110 -34
62 -49 65 -381 68 l-300 2 -1 835 c0 459 1 838 3 842 2 4 364 -173 804 -393
743 -372 804 -401 841 -396 22 3 51 15 64 28 23 21 178 320 174 335 -1 4 3 10
8 13 5 3 34 56 63 116 30 61 59 117 64 125 21 34 14 106 -13 138 -10 11 -411
218 -892 459 -481 241 -878 442 -881 446 -3 5 -9 8 -13 7 -9 -2 -979 482 -987
493 -3 5 -9 8 -13 8 -3 -1 -57 25 -119 56 -61 31 -114 58 -117 58 -14 4 -194
96 -206 106 -8 6 -14 8 -14 4 0 -4 -6 -2 -14 4 -12 10 -153 83 -166 86 -3 0
-25 12 -50 25 -62 32 -111 34 -152 7z m340 -370 c114 -57 344 -173 512 -258
168 -84 312 -156 320 -159 8 -3 103 -50 210 -105 107 -54 197 -99 200 -100 3
0 16 -7 30 -15 14 -7 75 -38 135 -67 61 -30 117 -58 125 -62 8 -5 349 -176
757 -381 l742 -372 -16 -31 c-10 -18 -18 -34 -18 -37 0 -3 -7 -16 -15 -30 -7
-14 -39 -76 -70 -138 l-55 -113 -675 338 c-371 186 -676 341 -678 345 -2 5
-12 8 -23 8 -10 0 -19 5 -19 10 0 6 -3 9 -7 8 -10 -3 -267 125 -271 135 -2 4
-8 7 -13 7 -11 0 -53 20 -936 463 l-632 317 85 170 c47 93 90 170 96 170 5 0
103 -47 216 -103z"/>
<path d="M3270 4422 c-30 -17 -52 -54 -187 -323 -141 -280 -159 -322 -154
-371 2 -32 50 -75 128 -113 43 -22 84 -40 91 -41 7 -1 19 -7 26 -13 7 -6 338
-174 737 -373 l724 -363 0 -448 c0 -246 4 -447 8 -447 5 0 5 -5 2 -10 -4 -6
-7 -213 -7 -460 l0 -449 -290 -1 c-314 -1 -339 -4 -372 -54 -31 -48 -22 -111
22 -155 l26 -26 728 -3 c793 -3 766 -5 804 53 23 35 20 108 -6 140 -35 43 -55
45 -369 45 l-301 0 1 49 c1 27 -2 54 -5 60 -4 6 -4 11 1 11 9 0 8 118 -1 127
-3 3 -1 13 4 23 5 10 7 20 3 23 -5 5 -7 70 -3 90 4 21 2 98 -3 104 -4 3 -2 13
3 23 5 10 7 20 3 23 -5 5 -7 70 -3 90 4 21 2 98 -3 104 -4 3 -2 13 3 22 5 10
5 23 1 30 -5 7 -5 29 -1 49 3 21 3 49 -1 65 -4 15 -4 27 -1 27 8 0 6 125 -2
146 -3 8 -2 14 2 14 8 0 7 118 -2 127 -3 3 -1 13 4 23 5 10 7 20 3 23 -5 5 -7
70 -3 90 4 21 2 98 -3 104 -4 3 -2 13 3 23 5 10 7 20 3 23 -5 6 -7 69 -3 92 5
26 4 51 -2 66 -4 8 -3 20 1 27 5 8 257 -114 804 -388 557 -279 807 -400 830
-400 66 0 86 25 182 216 49 98 94 182 98 185 5 3 8 9 7 13 -1 4 24 57 55 118
64 125 72 170 39 215 -14 20 -137 87 -420 230 -396 201 -410 208 -429 215 -5
2 -119 58 -252 126 -134 67 -244 121 -245 120 -2 -1 -22 11 -45 25 -24 15 -43
24 -43 20 0 -5 -4 -3 -8 2 -6 8 -458 238 -472 240 -3 1 -25 12 -50 25 -286
150 -1564 782 -1590 786 -24 3 -46 -1 -70 -14z m172 -296 c24 -13 46 -24 51
-25 4 0 31 -13 60 -28 177 -91 324 -163 334 -163 6 0 13 -3 15 -7 2 -5 242
-127 533 -272 292 -146 538 -272 548 -280 9 -8 17 -12 17 -8 0 5 687 -338 705
-353 6 -5 15 -9 20 -11 20 -4 60 -24 66 -32 3 -5 9 -8 13 -8 3 1 57 -25 119
-56 61 -32 119 -60 127 -63 16 -6 55 -26 320 -160 91 -46 167 -84 170 -85 13
-2 90 -46 90 -51 0 -6 -126 -261 -141 -284 -5 -8 -13 -25 -19 -38 -9 -22 -29
-13 -740 343 -401 201 -733 365 -736 364 -4 0 -10 3 -13 8 -8 11 -254 133
-269 133 -7 0 -12 3 -12 8 0 8 -48 32 -66 32 -7 0 -14 3 -16 8 -1 4 -317 164
-701 356 -383 191 -700 353 -703 358 -4 6 -1 14 6 18 6 4 10 9 8 11 -7 9 148
309 159 309 7 0 32 -11 55 -24z"/>
<path d="M6181 4412 c-20 -18 -67 -100 -137 -242 -59 -118 -112 -218 -117
-221 -5 -3 -7 -8 -5 -10 5 -7 -34 -89 -44 -89 -4 0 -8 -9 -8 -19 0 -11 -4 -22
-9 -25 -12 -8 -8 -86 7 -112 10 -19 58 -58 72 -59 8 -1 954 -476 965 -485 6
-4 17 -9 25 -12 8 -2 85 -39 170 -83 85 -43 157 -79 160 -80 3 -1 73 -35 155
-77 l150 -76 0 -903 0 -904 -293 0 c-160 0 -292 -4 -292 -8 0 -5 -4 -6 -9 -3
-4 3 -26 -10 -47 -28 -36 -31 -39 -37 -38 -85 1 -45 5 -57 32 -84 l32 -32 713
-3 c391 -2 726 0 742 3 42 7 83 48 91 90 10 57 1 78 -59 137 -1 1 -144 4 -317
8 l-315 5 0 843 c0 463 1 842 2 842 2 0 363 -181 803 -401 733 -368 804 -401
840 -396 21 3 49 13 62 23 28 21 328 618 328 652 0 34 -26 85 -52 101 -13 8
-804 406 -1758 885 -1368 686 -1744 870 -1777 872 -32 2 -48 -4 -72 -24z
m2119 -1252 c10 -10 257 -130 268 -130 6 0 12 -3 14 -7 2 -5 222 -118 490
-252 l487 -243 -81 -162 c-44 -88 -85 -166 -90 -173 -7 -8 -236 102 -826 398
-449 225 -822 413 -829 419 -7 5 -15 10 -19 10 -9 0 -706 349 -720 361 -6 5
-13 7 -16 4 -3 -3 -11 1 -18 10 -7 8 -18 15 -24 15 -7 0 -54 23 -106 50 -52
28 -96 50 -98 50 -1 0 -83 40 -182 90 -99 50 -182 89 -183 88 -2 -2 -11 2 -19
9 -8 7 -60 35 -116 63 l-101 50 78 155 c44 85 77 155 75 155 -2 0 3 8 11 18
15 16 76 -13 1008 -478 545 -272 994 -497 997 -500z"/>
</g>
</svg>
